<?xml version="1.0" encoding="utf-8"?>
<!-- Generator: Adobe Illustrator 27.5.0, SVG Export Plug-In . SVG Version: 6.00 Build 0)  -->
<svg version="1.1" id="Layer_1" xmlns="http://www.w3.org/2000/svg" xmlns:xlink="http://www.w3.org/1999/xlink" x="0px" y="0px"
	 viewBox="0 0 9000 4000" style="enable-background:new 0 0 9000 4000;" xml:space="preserve">
<g>
	<rect x="0" style="fill-rule:evenodd;clip-rule:evenodd;fill:#F0F0F0;" width="9000" height="4000"/>
	<g>
		<defs>
			<path id="SVGID_1_" d="M3246.37,0l2012.266,2012.262c384.506,384.506,384.506,1013.691,0,1398.199L4669.093,4000h832.137
				l1614.213-1614.209c384.506-384.506,384.506-1013.691,0-1398.199L6127.848,0H3246.37z"/>
		</defs>
		<clipPath id="SVGID_00000158713205343737809700000016876555726758084526_">
			<use xlink:href="#SVGID_1_"  style="overflow:visible;"/>
		</clipPath>
		
			<linearGradient id="SVGID_00000114041084121799699580000016949378135147052445_" gradientUnits="userSpaceOnUse" x1="4991.8965" y1="2243.3188" x2="7724.4912" y2="499.4004">
			<stop  offset="0" style="stop-color:#E8E8E8"/>
			<stop  offset="1" style="stop-color:#FFFFFF"/>
		</linearGradient>
		
			<rect x="3246.37" style="clip-path:url(#SVGID_00000158713205343737809700000016876555726758084526_);fill:url(#SVGID_00000114041084121799699580000016949378135147052445_);" width="4253.58" height="4000"/>
	</g>
	<g>
		<defs>
			<path id="SVGID_00000178165838876509386570000016970632761465347249_" d="M7115.443,2385.791L5501.23,4000h2184.238
				l655.455-655.451c384.506-384.509,384.506-1013.693,0-1398.199L6394.571,0h-266.724l987.595,987.592
				C7499.949,1372.101,7499.949,2001.285,7115.443,2385.791"/>
		</defs>
		<clipPath id="SVGID_00000000186759321460220370000015535121715385761467_">
			<use xlink:href="#SVGID_00000178165838876509386570000016970632761465347249_"  style="overflow:visible;"/>
		</clipPath>
		
			<linearGradient id="SVGID_00000012446018098790781500000013894352069763889284_" gradientUnits="userSpaceOnUse" x1="6794.1006" y1="2162.6257" x2="8249.6553" y2="1421.1172">
			<stop  offset="0" style="stop-color:#E8E8E8"/>
			<stop  offset="1" style="stop-color:#FFFFFF"/>
		</linearGradient>
		
			<rect x="5501.23" style="clip-path:url(#SVGID_00000000186759321460220370000015535121715385761467_);fill:url(#SVGID_00000012446018098790781500000013894352069763889284_);" width="3224.199" height="4000"/>
	</g>
	<g>
		<defs>
			<path id="SVGID_00000119825296532422043550000010750032904975118517_" d="M5753.63,0L3741.367,2012.262
				c-384.509,384.506-384.509,1013.691,0,1398.199L4330.907,4000H3498.77L1884.56,2385.791
				c-384.506-384.506-384.506-1013.691,0-1398.199L2872.155,0H5753.63z"/>
		</defs>
		<clipPath id="SVGID_00000114063709490803711230000018255210118548666547_">
			<use xlink:href="#SVGID_00000119825296532422043550000010750032904975118517_"  style="overflow:visible;"/>
		</clipPath>
		
			<linearGradient id="SVGID_00000156568479234335628330000009991630563967357090_" gradientUnits="userSpaceOnUse" x1="4296.707" y1="3429.0464" x2="2648.9119" y2="-86.2521">
			<stop  offset="0" style="stop-color:#E8E8E8"/>
			<stop  offset="1" style="stop-color:#FFFFFF"/>
		</linearGradient>
		
			<rect x="1500.054" style="clip-path:url(#SVGID_00000114063709490803711230000018255210118548666547_);fill:url(#SVGID_00000156568479234335628330000009991630563967357090_);" width="4253.577" height="4000"/>
	</g>
	<g>
		<defs>
			<path id="SVGID_00000155831100050290845840000017426818422394846603_" d="M1884.56,2385.791L3498.77,4000H1314.532
				L659.08,3344.549c-384.509-384.509-384.509-1013.693,0-1398.199L2605.432,0h266.724L1884.56,987.592
				C1500.054,1372.101,1500.054,2001.285,1884.56,2385.791"/>
		</defs>
		<clipPath id="SVGID_00000019657508254023019380000015700495332043421080_">
			<use xlink:href="#SVGID_00000155831100050290845840000017426818422394846603_"  style="overflow:visible;"/>
		</clipPath>
		
			<linearGradient id="SVGID_00000016774620070331272840000008451681757173098666_" gradientUnits="userSpaceOnUse" x1="2182.9834" y1="2906.8972" x2="1276.6968" y2="133.11">
			<stop  offset="0" style="stop-color:#E8E8E8"/>
			<stop  offset="1" style="stop-color:#FFFFFF"/>
		</linearGradient>
		
			<rect x="274.571" style="clip-path:url(#SVGID_00000019657508254023019380000015700495332043421080_);fill:url(#SVGID_00000016774620070331272840000008451681757173098666_);" width="3224.199" height="4000"/>
	</g>
</g>
</svg>
